HIERARCHY
ROOT Hips
{
	OFFSET 0.000000 89.005402 0.000000
	CHANNELS 6 Xposition Yposition Zposition Xrotation Yrotation Zrotation
	JOINT Spine
	{
		OFFSET 0.116900 10.681000 0.373400
		CHANNELS 3 Xrotation Yrotation Zrotation
		JOINT Spine1
		{
			OFFSET 0.000000 13.840401 0.053500
			CHANNELS 3 Xrotation Yrotation Zrotation
			JOINT Spine2
			{
				OFFSET 0.000000 14.712700 -0.366200
				CHANNELS 3 Xrotation Yrotation Zrotation
				JOINT Neck
				{
					OFFSET 0.000000 35.415497 -3.314200
					CHANNELS 3 Xrotation Yrotation Zrotation
					JOINT Head
					{
						OFFSET 0.000000 16.899200 1.218300
						CHANNELS 3 Xrotation Yrotation Zrotation
						JOINT HeadTop_End
						{
							OFFSET 0.000000 22.206207 2.192500
							CHANNELS 3 Xrotation Yrotation Zrotation
							End Site
							{
								OFFSET 0.000000 22.314178 0.000000
							}
						}
					}
				}
				JOINT LeftShoulder
				{
					OFFSET 12.896400 26.716293 -4.548400
					CHANNELS 3 Xrotation Yrotation Zrotation
					JOINT LeftArm
					{
						OFFSET 19.027000 -4.857010 -1.718400
						CHANNELS 3 Xrotation Yrotation Zrotation
						JOINT LeftForeArm
						{
							OFFSET 24.179897 0.000000 0.000000
							CHANNELS 3 Xrotation Yrotation Zrotation
							JOINT LeftHand
							{
								OFFSET 27.156403 0.000000 0.000000
								CHANNELS 3 Xrotation Yrotation Zrotation
								JOINT LeftHandIndex1
								{
									OFFSET 16.441200 0.000000 0.000000
									CHANNELS 3 Xrotation Yrotation Zrotation
									JOINT LeftHandIndex2
									{
										OFFSET 4.821899 0.000000 0.000000
										CHANNELS 3 Xrotation Yrotation Zrotation
										JOINT LeftHandIndex3
										{
											OFFSET 6.386497 0.000000 0.000000
											CHANNELS 3 Xrotation Yrotation Zrotation
											JOINT LeftHandIndex4
											{
												OFFSET 5.188988 0.000000 0.000000
												CHANNELS 3 Xrotation Yrotation Zrotation
												End Site
												{
													OFFSET -0.178703 5.185913 0.000177
												}
											}
										}
									}
								}
								JOINT LeftHandThumb1
								{
									OFFSET 6.534897 -5.032593 5.900300
									CHANNELS 3 Xrotation Yrotation Zrotation
									JOINT LeftHandThumb2
									{
										OFFSET 3.818176 -2.204422 2.204423
										CHANNELS 3 Xrotation Yrotation Zrotation
										JOINT LeftHandThumb3
										{
											OFFSET 3.252098 -1.877594 1.877601
											CHANNELS 3 Xrotation Yrotation Zrotation
											JOINT LeftHandThumb4
											{
												OFFSET 5.251778 -3.032120 3.032117
												CHANNELS 3 Xrotation Yrotation Zrotation
												End Site
												{
													OFFSET 0.000023 6.780014 0.000000
												}
											}
										}
									}
								}
							}
						}
					}
				}
				JOINT RightShoulder
				{
					OFFSET -12.896300 26.716293 -4.548400
					CHANNELS 3 Xrotation Yrotation Zrotation
					JOINT RightArm
					{
						OFFSET -19.027000 -4.857010 -1.718400
						CHANNELS 3 Xrotation Yrotation Zrotation
						JOINT RightForeArm
						{
							OFFSET -24.179897 0.000000 0.000000
							CHANNELS 3 Xrotation Yrotation Zrotation
							JOINT RightHand
							{
								OFFSET -27.156403 0.000000 0.000000
								CHANNELS 3 Xrotation Yrotation Zrotation
								JOINT RightHandThumb1
								{
									OFFSET -6.591202 -4.852203 5.988100
									CHANNELS 3 Xrotation Yrotation Zrotation
									JOINT RightHandThumb2
									{
										OFFSET -3.818176 -2.204422 2.204423
										CHANNELS 3 Xrotation Yrotation Zrotation
										JOINT RightHandThumb3
										{
											OFFSET -3.252098 -1.877594 1.877601
											CHANNELS 3 Xrotation Yrotation Zrotation
											JOINT RightHandThumb4
											{
												OFFSET -5.251778 -3.032120 3.032117
												CHANNELS 3 Xrotation Yrotation Zrotation
												End Site
												{
													OFFSET -0.000023 6.780014 0.000000
												}
											}
										}
									}
								}
								JOINT RightHandIndex1
								{
									OFFSET -16.029404 0.000000 0.000000
									CHANNELS 3 Xrotation Yrotation Zrotation
									JOINT RightHandIndex2
									{
										OFFSET -5.213303 0.000000 0.000000
										CHANNELS 3 Xrotation Yrotation Zrotation
										JOINT RightHandIndex3
										{
											OFFSET -6.386528 0.000000 0.000000
											CHANNELS 3 Xrotation Yrotation Zrotation
											JOINT RightHandIndex4
											{
												OFFSET -5.189026 0.000000 0.000000
												CHANNELS 3 Xrotation Yrotation Zrotation
												End Site
												{
													OFFSET 0.236702 5.183624 0.001972
												}
											}
										}
									}
								}
							}
						}
					}
				}
			}
		}
	}
	JOINT LeftUpLeg
	{
		OFFSET 14.073000 -7.904099 -1.463000
		CHANNELS 3 Xrotation Yrotation Zrotation
		JOINT LeftLeg
		{
			OFFSET -0.109806 -34.073280 4.093200
			CHANNELS 3 Xrotation Yrotation Zrotation
			JOINT LeftFoot
			{
				OFFSET 0.109806 -29.899420 -6.319000
				CHANNELS 3 Xrotation Yrotation Zrotation
				JOINT LeftToeBase
				{
					OFFSET 1.551100 -14.988700 20.535801
					CHANNELS 3 Xrotation Yrotation Zrotation
					JOINT LeftToe_End
					{
						OFFSET 0.221200 0.570800 13.248301
						CHANNELS 3 Xrotation Yrotation Zrotation
						End Site
						{
							OFFSET 0.000000 13.262435 0.000000
						}
					}
				}
			}
		}
	}
	JOINT RightUpLeg
	{
		OFFSET -13.839300 -7.904099 -1.463000
		CHANNELS 3 Xrotation Yrotation Zrotation
		JOINT RightLeg
		{
			OFFSET 0.109694 -34.073219 4.093300
			CHANNELS 3 Xrotation Yrotation Zrotation
			JOINT RightFoot
			{
				OFFSET -0.109694 -29.899384 -6.319200
				CHANNELS 3 Xrotation Yrotation Zrotation
				JOINT RightToeBase
				{
					OFFSET -1.551100 -14.988700 20.535801
					CHANNELS 3 Xrotation Yrotation Zrotation
					JOINT RightToe_End
					{
						OFFSET -0.221200 0.570900 13.248299
						CHANNELS 3 Xrotation Yrotation Zrotation
						End Site
						{
							OFFSET 0.000000 13.262440 0.000000
						}
					}
				}
			}
		}
	}
}
MOTION
Frames: 5
Frame Time: 0.033333
-1.731703 71.626045 1.111852 11.687172 -49.461689 11.396015 10.978511 2.787385 -2.155319 6.100704 5.566541 -4.284684 -5.786921 6.328123 -3.046184 2.318616 9.363359 -0.265299 -4.146614 23.161892 -3.523257 0.000001 0.000000 -0.000000 -1.875352 -16.181748 -2.870477 -10.644668 2.164790 -45.510664 -22.862363 -25.786273 -15.871640 2.491056 -2.511889 6.860473 -1.232783 -5.771937 -0.192320 0.133933 -0.197640 -4.602146 0.055745 -0.448194 -7.568189 -0.000006 -0.000000 -0.000000 18.457970 -9.513782 13.216607 -1.150200 11.255326 -8.400834 5.706530 8.483100 -0.820706 -0.000003 -0.000002 -0.000001 -5.074644 24.343967 1.482715 6.642405 -34.733988 57.610467 -21.032043 44.833836 19.961769 -0.087275 35.608512 7.474320 55.149536 18.649557 -29.698284 -0.442566 -14.180535 7.313152 21.666977 -29.244500 9.142358 0.000000 -0.000001 -0.000001 5.673373 7.585034 36.844158 1.050481 3.824490 68.900257 0.499585 3.026059 62.196481 0.000001 0.000000 0.000001 -64.946090 26.591205 44.239210 46.271011 -21.279818 3.025039 2.032330 1.396282 -11.917874 -0.918869 -6.110459 0.929412 0.000000 -0.000000 0.000000 -29.521044 -0.236654 -29.199025 53.475515 5.069689 -6.102653 -30.610043 -5.338669 27.121300 0.528333 2.970026 1.471354 -0.000000 0.000002 -0.000000 
-1.752986 71.573395 1.087040 11.835706 -49.362583 11.385589 11.010644 2.779770 -2.179333 6.136679 5.542239 -4.318884 -5.749872 6.311366 -3.084851 1.602077 9.228427 -0.318519 -3.850275 23.167558 -3.260422 0.000001 0.000000 0.000000 -1.894858 -16.212689 -2.944016 -10.970688 1.972586 -45.243815 -23.323984 -25.719803 -15.829146 2.513365 -2.610241 6.692493 -1.232989 -5.740892 -0.637349 0.132727 -0.213567 -5.007143 0.053594 -0.464016 -7.973199 -0.000002 0.000002 -0.000003 18.457972 -9.513806 13.216589 -1.138957 11.268718 -8.405032 5.706544 8.483104 -0.820730 0.000002 0.000001 -0.000002 -5.101090 24.165272 1.608059 5.932465 -34.603712 56.978278 -20.656481 44.637113 20.140703 -0.277045 35.748373 7.715701 55.149536 18.649560 -29.698284 -0.442568 -14.180535 7.313154 21.666977 -29.244497 9.142358 0.000000 0.000001 0.000001 5.673374 7.585032 36.844158 1.050480 3.824492 68.900250 0.499580 3.026056 62.196481 -0.000001 -0.000002 0.000001 -65.254357 26.409620 44.369674 46.394777 -21.364347 3.003565 2.073203 1.376561 -11.878385 -0.941403 -6.120016 0.952077 -0.000000 0.000001 0.000000 -29.674488 -0.349966 -29.108258 53.603256 5.063611 -6.069798 -30.705621 -5.302716 27.061626 0.503409 2.873061 1.481723 0.000000 -0.000000 0.000000 
-1.768969 71.466125 1.034276 12.009532 -49.275215 11.399987 11.099856 2.767410 -2.207875 6.217836 5.518917 -4.355102 -5.667624 6.296557 -3.125891 0.590178 9.191955 -0.344131 -3.567942 23.173170 -2.976218 -0.000000 -0.000000 0.000000 -1.905288 -16.306628 -2.977617 -11.381171 1.695508 -44.971987 -24.037294 -25.757224 -15.858279 2.566237 -2.634068 6.498493 -1.233288 -5.711759 -1.092380 0.131234 -0.230362 -5.435426 0.051225 -0.484372 -8.401305 0.000000 -0.000003 0.000001 18.457977 -9.513805 13.216605 -1.128885 11.280647 -8.408782 5.706524 8.483107 -0.820710 -0.000002 0.000001 0.000001 -5.150814 24.167462 1.748869 5.376595 -34.453677 56.612884 -21.023131 44.651624 20.325608 -0.253548 35.707112 8.209829 55.149536 18.649558 -29.698284 -0.442569 -14.180532 7.313153 21.666977 -29.244503 9.142358 0.000000 -0.000001 -0.000000 5.673373 7.585029 36.844161 1.050481 3.824491 68.900250 0.499583 3.026058 62.196481 0.000001 -0.000000 0.000001 -65.653097 26.157067 44.554263 46.624435 -21.428537 2.963430 2.104344 1.346924 -11.834983 -0.968635 -6.158206 0.985708 -0.000000 -0.000001 -0.000000 -29.987245 -0.489031 -29.054450 53.918388 5.134679 -6.054931 -30.875956 -5.245188 26.961023 0.472810 2.923718 1.482758 0.000000 0.000001 0.000000 
-1.784449 71.327477 0.977276 12.209332 -49.161748 11.412302 11.241084 2.751132 -2.236437 6.314395 5.504090 -4.390372 -5.570196 6.289884 -3.164990 -0.702525 8.922919 -0.328448 -3.384102 23.178585 -2.674340 -0.000000 -0.000000 -0.000000 -1.917428 -16.512203 -3.039440 -11.739645 1.449562 -44.644777 -24.721909 -26.168208 -15.954704 2.452896 -2.470266 6.349483 -1.233765 -5.684123 -1.555902 0.129571 -0.247916 -5.883297 0.048627 -0.505638 -8.849037 0.000003 0.000002 -0.000002 18.458007 -9.513816 13.216603 -1.119706 11.291628 -8.412165 5.706530 8.483072 -0.820744 -0.000003 -0.000000 0.000003 -5.248745 24.073654 2.078674 4.675708 -34.197688 56.103584 -21.667826 44.703759 20.518016 -0.090468 35.591716 8.791776 55.149536 18.649560 -29.698281 -0.442569 -14.180537 7.313154 21.666975 -29.244500 9.142359 -0.000000 0.000001 0.000000 5.673372 7.585028 36.844158 1.050481 3.824491 68.900250 0.499586 3.026059 62.196481 -0.000001 0.000002 -0.000001 -66.168018 25.867890 44.790782 46.933641 -21.551822 2.916408 2.137400 1.310240 -11.755462 -0.997409 -6.178278 1.007847 -0.000000 0.000002 -0.000000 -30.387225 -0.704956 -29.043023 54.315635 5.267194 -6.021793 -31.083832 -5.172962 26.822704 0.432070 2.964378 1.450410 -0.000000 0.000001 -0.000000 
-1.795463 71.187424 0.920186 12.296504 -49.060310 11.384190 11.433130 2.726361 -2.256726 6.473942 5.480644 -4.415582 -5.409586 6.272618 -3.196232 -1.998757 8.623195 -0.385304 -3.149101 23.295134 -2.360451 0.000000 0.000000 -0.000000 -1.957555 -16.809172 -3.200122 -12.259248 1.135290 -44.205070 -25.569179 -26.300345 -16.081902 2.545960 -2.414749 6.183477 -1.234419 -5.657351 -2.024228 0.127739 -0.265876 -6.342081 0.045819 -0.527376 -9.307728 -0.000003 -0.000000 0.000002 18.457985 -9.513815 13.216565 -1.110964 11.302217 -8.414388 5.706541 8.483109 -0.820729 -0.000002 -0.000000 0.000006 -5.341537 23.975916 2.412009 3.737751 -33.901415 55.354944 -21.691783 44.812369 20.625672 -0.158427 35.491623 8.979697 55.149536 18.649558 -29.698284 -0.442566 -14.180528 7.313156 21.666979 -29.244500 9.142358 0.000001 -0.000001 -0.000001 5.673371 7.585031 36.844165 1.050480 3.824485 68.900250 0.499583 3.026057 62.196481 0.000003 -0.000001 0.000001 -66.585909 25.631142 44.982038 47.248363 -21.663675 2.898736 2.154119 1.276700 -11.685550 -1.032913 -6.207446 1.043238 -0.000000 0.000001 -0.000000 -30.703749 -0.874237 -29.065914 54.736586 5.390837 -6.012145 -31.318241 -5.119053 26.708611 0.397703 2.974664 1.458077 0.000000 0.000002 -0.000000 
